<svg viewBox="0 0 400 785" fill="none" xmlns="http://www.w3.org/2000/svg">

<style>
#rodaDireita,
#rodaEsquerda {
  animation: rodas 2s infinite linear;
  transform-origin: center;
  transform-box: fill-box;
}

@keyframes rodas {
  from {
    transform: rotateZ(0);
  }
  to {
    transform: rotateZ(360deg);
  }
}
</style>

<g id="bike 1">
<g id="undraw Ride a bicycle 2yok 1">
<g id="Group">
<path id="Vector" opacity="0.1" d="M79.2931 287.748C77.2212 290.262 76.4235 293.797 75.5312 297.12C68.3479 323.903 50.6466 345.445 30.4878 360.833C21.9509 367.351 11.5577 376.092 13.4254 387.778C14.4311 394.054 18.8432 398.674 22.121 403.785C28.9982 414.489 31.2288 429.037 27.9509 441.85C24.2231 456.428 13.8035 470.031 17.0284 484.772C19.0171 493.846 25.7694 500.303 32.2609 505.853C42.3883 514.506 52.8382 522.612 63.6106 530.171C70.8318 535.237 78.5142 540.167 86.9301 540.81C94.3403 541.377 101.599 538.56 108.635 535.782C114.783 533.351 121.085 530.821 126.049 525.952C129.289 522.772 131.872 518.67 135.471 516.069C143.924 509.959 154.783 513.831 164.476 516.447C187.35 522.587 211.83 520.345 233.596 510.118C266.983 494.428 292.431 461.479 325.089 443.801C339.13 436.198 354.405 431.479 367.406 421.687C374.732 416.112 381.025 409.3 386.008 401.559C395.837 386.394 401.153 367.06 399.618 348.133C398.083 329.207 389.482 310.969 375.974 300.284C361.512 288.848 343.248 286.712 326.794 279.846C309.803 272.753 294.688 260.564 277.86 252.954C264.244 246.813 249.425 243.798 234.491 244.131C219.557 244.464 204.887 248.136 191.558 254.878C173.244 264.141 154.681 285.751 134.284 287.392C119.751 288.526 90.6428 273.978 79.2931 287.748Z" fill="#FF7E00"/>
<path id="Vector 2" d="M146.314 453.673L130.168 437.74L125.122 442.853L141.268 458.786L146.314 453.673Z" fill="#FF7E00"/>
<path id="Vector 3" opacity="0.1" d="M146.314 453.673L130.168 437.74L125.122 442.853L141.268 458.786L146.314 453.673Z" fill="black"/>
<path id="Vector 4" d="M134.019 430.114C134.019 430.114 143.391 425.169 147.013 421.986C149.194 420.078 151.538 418.367 154.019 416.87L165.777 409.714L190.352 407.823L191.486 411.982C191.486 411.982 193.376 418.031 174.473 423.324C155.569 428.617 146.117 436.935 146.117 436.935C146.117 436.935 134.019 441.078 134.019 430.114Z" fill="#DB8B8B"/>
<path id="Vector 5" opacity="0.1" d="M147.119 436.114C146.45 436.625 146.117 436.92 146.117 436.92C146.117 436.92 134.019 441.078 134.019 430.114C134.019 430.114 134.605 429.804 135.531 429.286C136.467 430.81 137.778 432.069 139.339 432.942C140.9 433.815 142.658 434.273 144.446 434.273H145.728L147.119 436.114Z" fill="black"/>
<path id="Vector 6" opacity="0.05" d="M191.131 414.069C190.08 416.296 186.454 419.956 174.473 423.309C159.119 427.608 150 433.895 147.119 436.114C146.45 436.625 146.117 436.92 146.117 436.92C146.117 436.92 134.019 441.078 134.019 430.114C134.019 430.114 134.605 429.804 135.531 429.286C138.34 427.748 144.287 424.371 147.002 421.971C149.182 420.063 151.526 418.351 154.008 416.855L165.766 409.698L170.144 409.362L190.34 407.808L191.475 411.967C191.475 411.967 191.739 412.78 191.131 414.069Z" fill="black"/>
<path id="Vector 7" d="M134.208 427.657L124.189 434.273L153.528 458.848C153.528 458.848 157.838 456.201 155.569 453.177C155.569 453.177 148.008 446.749 147.63 437.676L145.361 434.651H144.08C141.912 434.651 139.799 433.978 138.03 432.726C136.262 431.473 134.926 429.701 134.208 427.657Z" fill="#ABB1D1"/>
<path id="Vector 8" opacity="0.1" d="M191.13 414.069C185.081 411.146 170.314 410.833 170.314 410.833L170.155 409.362L190.352 407.808L191.486 411.967C191.486 411.967 191.739 412.78 191.13 414.069Z" fill="black"/>
<path id="Vector 9" d="M170.314 410.076C170.314 410.076 188.083 410.454 192.62 414.235L190.352 368.489H165.777L170.314 410.076Z" fill="#ABB1D1"/>
<path id="Vector 10" opacity="0.05" d="M170.314 409.887C170.314 409.887 188.083 410.266 192.62 414.046L190.352 368.3H165.777L170.314 409.887Z" fill="black"/>
<path id="Vector 11" d="M184.59 382.084C184.59 382.084 229.07 380.572 229.977 386.322C230.885 392.073 185.497 389.649 185.497 389.649C185.497 389.649 181.868 386.016 184.59 382.084Z" fill="#535461"/>
<path id="Vector 12" opacity="0.05" d="M184.59 382.084C184.59 382.084 229.07 380.572 229.977 386.322C230.885 392.073 185.497 389.649 185.497 389.649C185.497 389.649 181.868 386.016 184.59 382.084Z" fill="black"/>
<path id="Vector 13" d="M148.582 405.082H140.715V473.468H148.582V405.082Z" fill="#FF7E00"/>
<path id="Vector 14" opacity="0.1" d="M148.582 405.078V410.345C145.966 410.685 143.289 410.901 140.715 410.984V405.078H148.582Z" fill="black"/>
<path id="Vector 15" d="M147.992 399.411C146.888 399.326 145.791 399.178 144.703 398.969C140.439 398.152 129.686 396.439 126.794 399.347C123.164 402.976 124.374 409.332 134.057 410.239C143.739 411.146 160.382 408.727 163.713 405.093C163.713 405.078 157.69 400.156 147.992 399.411Z" fill="#535461"/>
<path id="Vector 16" d="M146.465 423.842L229.074 398.122L231.796 404.477L147.07 433.524L146.465 423.842Z" fill="#FF7E00"/>
<path id="Vector 17" d="M170.976 464.39L230.586 405.687L233.913 410.526L177.025 469.834L170.976 464.39Z" fill="#FF7E00"/>
<path id="Vector 18" opacity="0.1" d="M247.1 444.428C245.211 444.916 243.369 445.571 241.596 446.383L237.981 436.284C239.878 435.458 241.831 434.766 243.826 434.216L247.1 444.428Z" fill="black"/>
<path id="Vector 19" d="M257.214 474.073L252.979 476.493L223.437 393.948L222.114 390.254L229.074 386.319L230.817 391.755L257.214 474.073Z" fill="#FF7E00"/>
<path id="Vector 20" opacity="0.1" d="M230.817 391.755L223.437 393.948L222.114 390.254L229.074 386.319L230.817 391.755Z" fill="black"/>
<path id="Vector 21" d="M185.8 398.122L227.255 383.899C227.255 383.899 234.518 384.806 231.792 390.859L190.038 403.264C190.038 403.264 183.686 403.869 185.8 398.122Z" fill="#535461"/>
<path id="Vector 22" opacity="0.1" d="M139.051 476.946C139.051 479.265 138.871 481.581 138.514 483.872C134.885 483.611 131.134 483.233 127.459 482.855C128.276 478.36 128.174 473.745 127.161 469.29C130.741 468.534 134.397 467.812 137.966 467.158C138.689 470.37 139.053 473.653 139.051 476.946Z" fill="black"/>
<path id="Vector 23" opacity="0.1" d="M148.582 465.422V473.464H140.715V466.659C143.437 466.186 146.083 465.766 148.582 465.422Z" fill="black"/>
<path id="Vector 24" d="M97.7468 476.806C97.7468 476.806 161.293 460.171 166.435 466.519C171.577 472.867 177.025 481.343 161.002 484.368C144.979 487.392 96.5483 479.222 96.5483 479.222L97.7468 476.806Z" fill="#FF7E00"/>
<path id="Vector 25" opacity="0.1" d="M129.002 448.784L120.926 456.175C119.496 454.339 117.879 452.657 116.102 451.154L123.641 443.279C125.582 444.957 127.375 446.799 129.002 448.784Z" fill="black"/>
<path id="Vector 26" d="M95.6296 473.468L143.134 423.842L144.65 435.339L98.0493 478.005L95.6296 473.468Z" fill="#FF7E00"/>
<path id="Vector 27" opacity="0.1" d="M95.0247 481.638C97.6996 481.638 99.8678 479.47 99.8678 476.795C99.8678 474.12 97.6996 471.952 95.0247 471.952C92.3499 471.952 90.1816 474.12 90.1816 476.795C90.1816 479.47 92.3499 481.638 95.0247 481.638Z" fill="black"/>
<g id="rodaEsquerda">
<path id="Vector 28" d="M96.4955 515.181L94.125 478.152L94.0759 478.073L91.6865 478.905L80.6921 510.984L63.2063 498.587L91.0589 478.394L91.0853 478.315L91.2441 478.258L93.04 476.954L63.8377 460.579L56.6846 468.443L57.8188 475.816L91.3991 476.428V477.184L57.1912 476.572L55.8982 468.201L65.6903 457.441L80.3405 440.353L80.6014 441.06L83.7016 437.657L95.2177 439.721V439.264L95.9738 439.286V439.857L113.123 442.927L97.1345 474.916L94.8018 476.606V476.795V477.007L131.777 464.122L127.388 498.606L96.0078 478.617L94.9039 477.997L113.407 507.82L96.4955 515.181ZM94.9833 479.513L97.195 514.062L112.337 507.491L94.9833 479.513ZM64.5182 498.579L80.3179 509.782L90.6543 479.634L64.5182 498.579ZM95.6411 477.536L96.4313 477.978L126.809 497.336L130.893 465.249L95.6411 477.536ZM92.9568 474.814L93.9058 476.345L94.0721 476.224L95.2063 440.485L83.9625 438.474L80.8774 441.876L92.9568 474.814ZM64.4426 460.046L92.7375 475.925L92.246 475.12L80.3065 442.504L66.246 457.956L64.4426 460.046ZM95.9738 440.617L94.8396 475.672L96.5485 474.432L112.015 443.498L95.9738 440.617Z" fill="#535461"/>
<path id="Vector 29" d="M137.966 467.15C136.45 460.413 133.38 454.124 129.002 448.784C127.377 446.799 125.585 444.957 123.645 443.279C116.187 436.84 106.802 433.059 96.9631 432.531C87.1242 432.002 77.3884 434.755 69.2833 440.358C61.1782 445.961 55.1631 454.096 52.1816 463.488C49.2002 472.879 49.4213 482.994 52.8104 492.246C56.1994 501.498 62.5642 509.362 70.9064 514.606C79.2486 519.849 89.0954 522.174 98.9019 521.216C108.708 520.258 117.919 516.071 125.088 509.312C132.258 502.553 136.98 493.605 138.514 483.872C138.871 481.581 139.051 479.265 139.051 476.946C139.054 473.651 138.69 470.365 137.966 467.15ZM94.416 510.383C87.523 510.376 80.7994 508.246 75.1597 504.282C69.5196 500.319 65.2372 494.715 62.8947 488.232C60.5521 481.75 60.2629 474.703 62.0663 468.05C63.8697 461.397 67.6784 455.461 72.9748 451.049C78.2709 446.637 84.7971 443.963 91.6663 443.391C98.5359 442.819 105.415 444.376 111.368 447.851C117.32 451.326 122.059 456.551 124.938 462.814C127.817 469.077 128.698 476.074 127.46 482.855C126.042 490.584 121.959 497.571 115.921 502.601C109.884 507.631 102.274 510.384 94.416 510.383Z" fill="#535461"/>
<path id="Vector 30" d="M94.4161 481.638C97.091 481.638 99.2592 479.47 99.2592 476.795C99.2592 474.12 97.091 471.952 94.4161 471.952C91.7412 471.952 89.573 474.12 89.573 476.795C89.573 479.47 91.7412 481.638 94.4161 481.638Z" fill="#535461"/>
</g>
<path id="Vector 31" opacity="0.1" d="M255.248 481.184C257.922 481.184 260.091 479.016 260.091 476.341C260.091 473.666 257.922 471.498 255.248 471.498C252.573 471.498 250.405 473.666 250.405 476.341C250.405 479.016 252.573 481.184 255.248 481.184Z" fill="black"/>
<g id="rodaDireita">
<path id="Vector 32" d="M257.626 515.332L255.259 478.319L255.21 478.239L252.821 479.071L241.822 511.135L224.337 498.734L252.197 478.542L252.223 478.462L252.382 478.405L254.178 477.101L224.976 460.727L217.819 468.591L218.953 475.963L252.526 476.56V477.317L218.318 476.704L217.032 468.345L226.821 457.589L241.459 440.511L241.72 441.218L244.821 437.816L256.367 439.884V439.426L257.123 439.449V440.02L274.272 443.09L258.269 475.094L255.936 476.784V476.973V477.184L292.915 464.3L288.526 498.784L257.146 478.795L256.042 478.175L274.545 508.001L257.626 515.332ZM256.114 479.664L258.325 514.213L273.467 507.642L256.114 479.664ZM225.652 498.734L241.452 509.937L251.788 479.789L225.652 498.734ZM256.775 477.691L257.565 478.133L287.943 497.491L292.027 465.404L256.775 477.691ZM254.091 474.969L255.04 476.5L255.206 476.379L256.34 440.64L245.097 438.621L242.011 442.024L254.091 474.969ZM225.588 460.205L253.883 476.084L253.391 475.279L241.452 442.663L227.388 458.118L225.588 460.205ZM257.108 440.776L255.974 475.819L257.683 474.579L273.149 443.646L257.108 440.776Z" fill="#535461"/>
<path id="Vector 33" d="M255.701 432.617C251.689 432.613 247.694 433.152 243.826 434.22C241.831 434.77 239.878 435.461 237.981 436.288C227.875 440.669 219.753 448.643 215.186 458.666C210.619 468.689 209.932 480.05 213.257 490.55C216.582 501.051 223.684 509.945 233.188 515.513C242.692 521.08 253.923 522.925 264.709 520.69C275.494 518.455 285.068 512.299 291.577 503.414C298.086 494.528 301.069 483.544 299.948 472.587C298.827 461.63 293.681 451.477 285.508 444.094C277.334 436.711 266.712 432.622 255.698 432.617H255.701ZM255.55 510.534C247.882 510.531 240.447 507.905 234.477 503.092C228.508 498.28 224.365 491.57 222.735 484.078C221.106 476.585 222.089 468.761 225.52 461.904C228.952 455.047 234.625 449.57 241.599 446.383C243.373 445.571 245.215 444.917 247.104 444.428C251.721 443.23 256.54 443.028 261.242 443.837C265.943 444.646 270.417 446.447 274.368 449.12C278.319 451.794 281.655 455.278 284.154 459.34C286.654 463.403 288.259 467.951 288.864 472.683C289.469 477.415 289.059 482.221 287.662 486.782C286.265 491.343 283.912 495.554 280.761 499.134C277.61 502.716 273.732 505.584 269.385 507.55C265.039 509.515 260.324 510.533 255.554 510.534H255.55Z" fill="#535461"/>
<path id="Vector 34" d="M255.55 481.789C258.225 481.789 260.393 479.621 260.393 476.946C260.393 474.271 258.225 472.103 255.55 472.103C252.875 472.103 250.707 474.271 250.707 476.946C250.707 479.621 252.875 481.789 255.55 481.789Z" fill="#535461"/>
</g>
<path id="Vector 35" opacity="0.1" d="M169.46 481.638C174.807 481.638 179.142 477.303 179.142 471.956C179.142 466.608 174.807 462.273 169.46 462.273C164.112 462.273 159.777 466.608 159.777 471.956C159.777 477.303 164.112 481.638 169.46 481.638Z" fill="black"/>
<path id="Vector 36" d="M170.068 481.638C175.416 481.638 179.751 477.303 179.751 471.956C179.751 466.608 175.416 462.273 170.068 462.273C164.721 462.273 160.386 466.608 160.386 471.956C160.386 477.303 164.721 481.638 170.068 481.638Z" fill="#535461"/>
<path id="Vector 37" d="M167.483 471.228L167.48 471.23C166.343 472.081 166.111 473.692 166.961 474.829L174.646 485.105C175.496 486.242 177.107 486.475 178.244 485.624L178.247 485.622C179.384 484.772 179.616 483.161 178.766 482.024L171.081 471.747C170.231 470.61 168.62 470.378 167.483 471.228Z" fill="#FF7E00"/>
<path id="Vector 38" d="M213.792 337.487L212.892 348.87C212.789 350.312 212.808 351.76 212.949 353.199C213.066 354.473 212.949 356.704 211.702 360.107C210.1 364.453 209.272 369.047 209.255 373.679V386.636L200.56 385.124C200.56 385.124 200.938 366.976 199.425 363.952C197.913 360.927 200.56 334.084 200.56 334.084L213.792 337.487Z" fill="#DB8B8B"/>
<path id="Vector 39" opacity="0.05" d="M213.346 343.127L212.892 348.87C212.79 350.311 212.81 351.758 212.953 353.196C213.07 354.47 212.953 356.7 211.705 360.107C210.103 364.453 209.275 369.047 209.259 373.679V386.636L200.563 385.124C200.563 385.124 200.942 366.976 199.429 363.952C198.359 361.808 199.373 347.717 200.057 339.676C200.34 336.368 200.563 334.084 200.563 334.084L213.796 337.487L213.346 343.127Z" fill="black"/>
<path id="Vector 40" d="M170.699 424.443L167.429 443.044C167.017 445.528 166.384 447.97 165.539 450.341C163.622 455.581 164.847 462.927 165.777 466.935C166.189 468.704 166.533 469.823 166.533 469.823L156.703 475.116L153.679 472.848V471.335L153.301 437.687C151.032 432.394 151.788 424.454 153.301 421.43C153.73 420.436 154.033 419.392 154.2 418.322C154.957 414.269 155.191 408.575 155.191 408.575C155.191 408.575 161.24 398.368 168.423 405.173C171.07 407.679 172.076 410.957 172.287 414.095C172.658 419.468 170.699 424.443 170.699 424.443Z" fill="#DB8B8B"/>
<path id="Vector 41" opacity="0.1" d="M172.287 414.084C167.044 417.199 157.921 418.08 154.2 418.311C154.957 414.258 155.191 408.564 155.191 408.564C155.191 408.564 161.24 398.356 168.424 405.162C171.07 407.668 172.076 410.946 172.287 414.084Z" fill="black"/>
<path id="Vector 42" d="M185.059 404.783C181.038 406.924 177.239 409.457 173.716 412.345C167.667 417.26 152.544 417.638 152.544 417.638V411.967C152.923 405.161 146.495 397.6 137.8 376.428C132.246 362.908 133.785 355.256 135.622 351.475C136.665 349.339 137.8 348.451 137.8 348.451L185.059 357.524L186.749 362.591L190.352 373.403C190.352 373.403 177.119 374.16 174.851 375.294C172.582 376.428 174.095 386.636 174.095 386.636C171.826 397.222 185.059 404.783 185.059 404.783Z" fill="#ABB1D1"/>
<path id="Vector 43" opacity="0.1" d="M213.792 337.487L213.346 343.127C206.768 345.018 202.072 338.999 202.072 338.999C201.386 339.183 200.712 339.409 200.053 339.676C200.337 336.368 200.56 334.084 200.56 334.084L213.792 337.487Z" fill="black"/>
<path id="Vector 44" opacity="0.1" d="M186.749 362.591C186.571 364.356 186.571 365.464 186.571 365.464C186.571 365.464 177.875 372.647 163.13 361.683C148.386 350.719 135.153 353.744 135.153 353.744C135.153 353.744 135.308 352.867 135.622 351.475C136.665 349.339 137.8 348.451 137.8 348.451L185.059 357.524L186.749 362.591Z" fill="black"/>
<path id="Vector 45" d="M218.888 322.723C217.902 330.417 217.573 340.114 217.573 340.114C208.877 346.92 202.072 338.224 202.072 338.224C193.86 340.428 190 347.615 188.181 353.887C187.208 357.28 186.666 360.782 186.571 364.311C186.571 364.311 184.272 366.201 180.038 366.579C176.034 366.916 170.295 365.872 163.13 360.53C148.386 349.566 135.153 352.591 135.153 352.591C135.153 352.591 137.8 337.468 143.849 332.931C149.898 328.394 154.435 322.723 161.996 305.332C169.558 287.94 185.059 292.099 185.059 292.099C185.059 292.099 185.815 288.697 199.803 292.099C203.211 292.992 206.364 294.663 209.017 296.98C216.499 303.271 220.129 313.029 218.888 322.723Z" fill="white"/>
<path id="Vector 46" d="M204.858 300.625C204.839 301.128 204.798 301.687 204.73 302.311C203.974 309.116 203.217 308.36 194.9 309.872C189.728 310.814 187.04 306.492 185.747 303.09C185.279 301.857 184.926 300.584 184.692 299.286L202.839 296.262C202.839 296.262 205.013 295.653 204.858 300.625Z" fill="#DB8B8B"/>
<path id="Vector 47" opacity="0.05" d="M188.181 353.906C187.208 357.299 186.666 360.801 186.571 364.33C186.571 364.33 184.272 366.22 180.038 366.598C179.918 366.357 179.827 366.104 179.766 365.842C179.009 362.439 173.338 356.39 173.338 356.39C169.558 352.988 168.801 346.938 168.801 346.938L162.563 328.602L160.484 326.901C160.484 326.901 169.18 320.095 176.741 325.766C184.302 331.438 182.034 343.536 182.034 343.536L183.546 347.695C185.115 349.018 186.711 351.351 188.181 353.906Z" fill="black"/>
<path id="Vector 48" d="M161.618 326.523L169.936 346.561C169.936 346.561 170.692 352.61 174.473 356.012C174.473 356.012 180.144 362.061 180.9 365.464C181.656 368.867 192.242 377.94 192.242 377.94C192.242 377.94 202.072 387.014 202.828 390.417C202.828 390.417 211.902 393.063 210.767 398.356C210.767 398.356 217.573 391.551 210.767 385.124C203.962 378.697 194.888 365.464 194.888 365.464C194.888 365.464 189.595 351.475 184.681 347.317L183.168 343.158C183.168 343.158 185.437 331.06 177.875 325.388C170.314 319.717 161.618 326.523 161.618 326.523Z" fill="#DB8B8B"/>
<path id="Vector 49" opacity="0.1" d="M166.533 469.812L156.703 475.105L153.679 472.837V471.324C157.075 471.083 160.375 470.087 163.338 468.409C164.246 467.895 165.1 467.389 165.785 466.942C166.182 468.693 166.533 469.812 166.533 469.812Z" fill="black"/>
<path id="Vector 50" opacity="0.1" d="M177.875 310.644L183.168 331.438C183.168 331.438 166.911 334.084 163.509 331.438C160.106 328.791 153.679 328.035 153.679 328.035C153.679 328.035 160.484 308.375 164.265 306.107C168.045 303.838 177.875 310.644 177.875 310.644Z" fill="black"/>
<path id="Vector 51" d="M177.875 309.888L183.168 330.681C183.168 330.681 166.911 333.328 163.509 330.681C160.106 328.035 153.679 327.279 153.679 327.279C153.679 327.279 160.484 307.619 164.265 305.351C168.045 303.082 177.875 309.888 177.875 309.888Z" fill="white"/>
<path id="Vector 52" opacity="0.1" d="M204.858 300.247C203.799 301.708 202.453 302.938 200.901 303.86C199.349 304.782 197.625 305.376 195.835 305.607C194.045 305.838 192.226 305.7 190.492 305.202C188.757 304.704 187.142 303.857 185.747 302.712C185.279 301.479 184.926 300.206 184.692 298.908L202.839 295.884C202.839 295.884 205.013 295.275 204.858 300.247Z" fill="black"/>
<path id="Vector 53" d="M207.365 292.118C207.365 295.628 205.971 298.993 203.489 301.475C201.008 303.957 197.642 305.351 194.132 305.351C190.623 305.351 187.257 303.957 184.776 301.475C182.294 298.993 180.9 295.628 180.9 292.118C180.9 291.899 180.9 291.68 180.9 291.46C180.987 287.951 182.465 284.62 185.008 282.2C187.551 279.78 190.952 278.469 194.461 278.557C197.971 278.644 201.302 280.122 203.722 282.665C206.142 285.208 207.452 288.608 207.365 292.118Z" fill="#DB8B8B"/>
<path id="Vector 54" opacity="0.1" d="M207.365 292.118C207.366 293.338 207.198 294.551 206.866 295.725C205.843 295.948 204.776 295.85 203.811 295.445C202.397 294.889 201.183 293.933 199.826 293.245C196.004 291.309 191.456 291.691 187.221 292.33C185.119 292.647 182.733 292.942 181.081 291.604C181.025 291.559 180.97 291.511 180.919 291.46C181.006 287.951 182.484 284.62 185.027 282.2C187.57 279.78 190.971 278.469 194.48 278.557C197.99 278.644 201.321 280.122 203.741 282.665C206.161 285.208 207.471 288.608 207.384 292.118H207.365Z" fill="black"/>
<path id="Vector 55" d="M171.327 283.933C172.132 286.458 176 286.538 177.985 288.398C179.017 289.366 179.497 290.795 180.631 291.657C182.208 292.859 184.484 292.594 186.492 292.307C190.533 291.732 194.873 291.388 198.518 293.131C199.811 293.748 200.972 294.61 202.321 295.112C203.671 295.615 205.346 295.676 206.442 294.784C207.32 294.069 207.641 292.893 208.435 292.107C209.051 291.487 209.909 291.139 210.613 290.594C212.155 289.43 212.821 287.532 213.259 285.717C214.166 281.982 214.427 277.956 212.881 274.413C211.335 270.87 207.614 267.986 203.554 268.171C202.31 268.228 201.097 268.549 199.856 268.685C196.624 269.014 193.429 267.929 190.185 267.744C189.244 267.629 188.29 267.76 187.414 268.122C186.754 268.489 186.184 268.999 185.747 269.615C184.262 271.561 183.245 273.822 182.775 276.224C182.397 278.035 182.378 279.676 180.159 279.956C177.637 280.288 169.622 278.591 171.327 283.933Z" fill="#472727"/>
<path id="Vector 56" opacity="0.05" d="M145.55 332.761C145.55 332.761 155.38 335.407 158.405 342.213C161.429 349.018 169.611 350.262 169.611 350.262" fill="black"/>
<path id="Vector 57" d="M182.601 482.477H159.917V489.661H182.601V482.477Z" fill="#FF7E00"/>
<path id="Vector 58" opacity="0.1" d="M182.601 482.477H159.917V489.661H182.601V482.477Z" fill="black"/>
<path id="Vector 59" d="M163.323 469.146C165.354 468.012 167.134 466.878 167.289 466.409C167.289 466.409 172.412 471.816 176.975 473.494C178.51 474.061 179.979 474.791 181.357 475.672C183.165 476.806 185.743 478.141 188.083 478.141C188.083 478.141 193.376 482.678 183.168 483.434C172.96 484.19 149.142 481.543 149.142 481.543L150.654 472.092C155.073 472.351 159.472 471.328 163.323 469.146Z" fill="#ABB1D1"/>
</g>
</g>
</g>
</svg>
