<svg width="197" height="197" viewBox="0 0 197 197" fill="none" xmlns="http://www.w3.org/2000/svg">
<style>
  #alunos, #retangulo, #alunos-icon {
  -webkit-transition: 300ms all;
  transition: 300ms all;
  -webkit-transform-origin: 50% 50%;
          transform-origin: 50% 50%;
}

#alunos:hover #retangulo {
  fill: #FF7E00;
  -webkit-transform: rotate(404deg);
          transform: rotate(404deg);
}
#alunos:hover #alunos-icon {
  stroke: #FFFFFF;
  -webkit-transform: scale(0.9);
          transform: scale(0.9);
}
</style>

<g id="alunos">
<g id="retangulo">
<rect x="99.4009" width="138.62" height="138.62" transform="rotate(45.8135 99.4009 0)" fill="white"/>
<rect x="99.3808" y="1.41407" width="136.62" height="136.62" transform="rotate(45.8135 99.3808 1.41407)" stroke="black" stroke-opacity="0.65" stroke-width="2"/>
</g>
<path id="alunos-icon" fill-rule="evenodd" clip-rule="evenodd" d="M97.5859 70C92.0726 70 87.6032 74.2906 87.6032 79.5834C87.6032 84.8761 92.0726 89.1668 97.5859 89.1668C103.099 89.1668 107.569 84.8761 107.569 79.5834C107.569 74.2906 103.099 70 97.5859 70ZM68.747 76.3889C63.8463 76.3889 59.8735 80.2028 59.8735 84.9075C59.8735 89.6121 63.8463 93.426 68.747 93.426C73.6477 93.426 77.6205 89.6121 77.6205 84.9075C77.6205 80.2028 73.6477 76.3889 68.747 76.3889ZM126.425 76.3889C121.524 76.3889 117.551 80.2028 117.551 84.9075C117.551 89.6121 121.524 93.426 126.425 93.426C131.325 93.426 135.298 89.6121 135.298 84.9075C135.298 80.2028 131.325 76.3889 126.425 76.3889ZM97.5859 97.6853C85.9106 97.6853 76.5113 103.846 76.5113 109.398V125.371H118.66V109.398C118.66 103.846 109.261 97.6853 97.5859 97.6853ZM68.747 101.945C58.3007 101.945 51 107.625 51 112.593V118.982H72.0746V109.398C72.0746 106.798 73.0458 104.53 74.6049 102.577C72.7609 102.185 70.7927 101.945 68.747 101.945ZM126.425 101.945C124.379 101.945 122.411 102.185 120.567 102.577C122.126 104.53 123.097 106.798 123.097 109.398V118.982H144.172V112.593C144.172 107.625 136.871 101.945 126.425 101.945Z" stroke="#FF7E00" stroke-width="3"/>
</g>
</svg>
